<?xml version="1.0" encoding="utf-8"?>
<!-- Generator: Adobe Illustrator 22.1.0, SVG Export Plug-In . SVG Version: 6.00 Build 0)  -->
<svg version="1.1" id="Layer_1" xmlns="http://www.w3.org/2000/svg" xmlns:xlink="http://www.w3.org/1999/xlink" x="0px" y="0px"
	 viewBox="0 0 547.2 187.2" style="enable-background:new 0 0 547.2 187.2;" xml:space="preserve">
<style type="text/css">
	.st0{fill:#430098;}
	.st1{fill:#231F20;}
	.st2{fill:#80BC00;}
	.st3{fill:url(#SVGID_1_);}
	.st4{fill:url(#SVGID_2_);}
	.st5{fill:url(#SVGID_3_);}
	.st6{fill:url(#SVGID_4_);}
	.st7{fill:url(#SVGID_5_);}
	.st8{fill:url(#SVGID_6_);}
	.st9{fill:url(#SVGID_7_);}
	.st10{fill:url(#SVGID_8_);}
	.st11{fill:url(#SVGID_9_);}
	.st12{fill:url(#SVGID_10_);}
	.st13{fill:url(#SVGID_11_);}
</style>
<g>
	<path class="st0" d="M444.8,46.9h-2.5v-1.4h6.6v1.4h-2.5v6.9h-1.7V46.9z M458.2,47.3L458.2,47.3l-2.5,6.5h-1.1l-2.4-6.5h0v6.5h-1.6
		v-8.2h2.4l2.2,5.8l2.2-5.8h2.4v8.2h-1.6V47.3z"/>
	<path class="st0" d="M92.7,62.1c0,7.9-4.4,12-9.2,14.5c7.6,2.6,12.8,6.9,12.8,15.8c0,11.6-9.5,17.8-23.9,17.8H42.5V45.6h29
		C84.5,45.6,92.7,52,92.7,62.1 M81.4,64c0-5.3-4.1-8.3-11.4-8.3H53.7v17.2h15.5C76.5,72.8,81.4,70,81.4,64 M85,91.2
		c0-5.5-4.3-8.8-13.3-8.8h-18v17.7h18.8C80.3,100.2,85,97.1,85,91.2"/>
	<path class="st0" d="M150.7,110.3l-15.9-22.5h-14.2v22.5h-11.4V45.6H138c14.9,0,24,7.9,24,20.5c0,10.7-6.4,17.2-15.4,19.7
		l17.5,24.5H150.7z M137.1,55.9h-16.5v21.7h16.6c8.1,0,13.3-4.3,13.3-10.9C150.5,59.6,145.5,55.9,137.1,55.9"/>
	<path class="st0" d="M237.9,110.3h-12l-6.6-15.6h-30.6l-6.7,15.6h-11.6l28.5-65.1h10.5L237.9,110.3z M204,58.7l-11.1,25.9h22.3
		L204,58.7z"/>
	<polygon class="st0" points="294.2,45.6 305.4,45.6 305.4,110.3 295.8,110.3 260.2,64.3 260.2,110.3 249,110.3 249,45.6 
		259.5,45.6 294.2,90.3 	"/>
	<path class="st0" d="M352,111.4c-18.8,0-32.9-14.7-32.9-33.4c0-18.5,13.8-33.5,33.4-33.5c11.9,0,19.1,4.2,25.3,10.1l-7.3,8.4
		c-5.2-4.8-10.7-8-18.1-8C340,54.9,331,65.1,331,77.8c0,12.8,9,23.1,21.3,23.1c7.9,0,13-3.2,18.6-8.4l7.3,7.4
		C371.5,106.9,364.1,111.4,352,111.4"/>
	<polygon class="st0" points="438.1,55.7 401.5,55.7 401.5,72.6 434,72.6 434,82.7 401.5,82.7 401.5,100.1 438.6,100.1 438.6,110.3 
		390.2,110.3 390.2,45.6 438.1,45.6 	"/>
	<path class="st1" d="M343.3,128.1v19.6h-2.7v-16.6l-2.9,1.9v-2.6c1.5-0.9,1.8-1.2,3.1-2.3H343.3z"/>
	<path class="st1" d="M349.3,133.4c-0.1-1.5-0.1-2.6,0.9-3.8c0.7-0.8,1.8-1.7,4.1-1.7c1.1,0,1.7,0.2,2.1,0.4c1,0.4,2.8,1.6,2.8,4.4
		c0,0.3,0,1.1-0.2,2c-0.4,1.8-1.2,2.9-2.2,4.4l-4.8,6.4l7.7-0.1v2.4h-10.5v-2.3c1.3-1.8,2.5-3.6,3.9-5.4c1.4-1.8,1.8-2.4,2.8-4.4
		c0.1-0.3,0.5-1.7,0.5-2.9c0-1.3-0.5-1.9-0.9-2.2c-0.5-0.4-1.1-0.5-1.4-0.5c-0.1,0-0.6,0-1,0.2c-1.2,0.6-1.3,1.9-1.3,3.2H349.3z"/>
	<path class="st1" d="M364.4,139.5l0.2-11.4h8.9v2.4l-6.3-0.1l-0.2,6c0.1-0.1,0.4-0.5,0.8-0.8c0.4-0.3,1.2-0.8,2.6-0.8
		c0.4,0,1.1,0,1.9,0.4c1.9,0.9,2.1,3,2.1,4.9c0,3.1,0,4.7-0.8,6c-0.3,0.5-0.7,0.9-1.2,1.2c-0.3,0.2-0.8,0.5-1.5,0.6
		c-0.7,0.1-1.4,0.1-1.6,0.1c-2.3,0-3.3-0.6-4-1.5c-1-1.2-1-2.4-1-3.8l2.9,0c0,0.1-0.1,0.9,0.1,1.4c0.1,0.5,0.6,1.6,2,1.6
		c0.8,0,1.7-0.4,2.1-1.1c0.2-0.4,0.3-0.9,0.3-1c0.1-0.6,0.1-2.9,0.1-3.5c0-2.5-0.9-3.3-2.2-3.3c-0.6,0-1,0.2-1.2,0.3
		c-0.9,0.5-1.1,1.4-1.4,2.3H364.4z"/>
	<path class="st1" d="M388.9,135.1l0.5-0.4c0.4-0.3,1.2-1,2.5-0.9c0.5,0,0.9,0.1,1,0.1c0.8,0.3,1.3,0.7,1.9,1.4
		c0.2-0.2,0.4-0.3,0.5-0.5c0.4-0.3,1.2-1,2.6-1c1.2,0,2.6,0.6,3.1,1.7c0.3,0.5,0.3,1.2,0.4,1.8v10.6h-2.7v-9.4
		c0-0.8,0.1-1.6-0.6-2.1c-0.1-0.1-0.5-0.4-1-0.4c-0.3,0-0.6,0.1-0.7,0.2c-0.7,0.3-0.9,1-1,1.8v10h-2.7v-9.9
		c-0.1-0.7-0.1-1.3-0.7-1.7c-0.1-0.1-0.5-0.3-1-0.3c-0.1,0-0.5,0-0.9,0.3c-0.7,0.5-0.8,1.2-0.8,2.1l-0.1,9.5h-2.7c0-2.1,0-4.2,0-6.3
		c0-1.6,0.1-3.1,0-4.6c0-1-0.1-1.9-0.2-2.9h2.7V135.1z"/>
	<path class="st1" d="M411.5,133.9l2.7,0c-0.1,0.7-0.1,1.4-0.2,2c0,0.6,0,1.2,0,1.9v7c0,1,0,1.9,0,2.9c0,0.6-0.1,1.1-0.1,1.7
		c-0.1,0.4-0.2,1.6-1,2.4c-0.5,0.5-1.5,1.1-3.2,1.1c-2.5,0-3.7-1.2-4.1-2.3c-0.2-0.5-0.3-0.9-0.3-2h2.7c0,0.2,0,0.3,0,0.5
		c0.1,0.9,0.5,1.3,0.8,1.5c0.1,0.1,0.5,0.3,0.9,0.3c0.2,0,0.5,0,0.9-0.3c0.4-0.3,0.7-0.7,0.7-1.7c0-0.2,0-0.4,0-0.6v-1.9
		c-0.3,0.4-0.4,0.4-0.6,0.6c-0.6,0.5-1.4,0.7-2.1,0.7c-1.2,0-2.2-0.5-2.8-1.5c-0.3-0.5-0.5-1-0.6-1.6c-0.1-1-0.1-2-0.1-3.1v-2.2
		c0-0.3,0-0.7,0-1.1c0-0.4,0.1-0.8,0.1-1.2c0.2-0.8,0.3-1.3,0.5-1.6c0.5-1.1,1.8-1.7,3.1-1.7c0.7,0,1.6,0.3,2.2,0.7
		c0.3,0.2,0.7,0.8,0.7,0.8L411.5,133.9z M407.6,142.4c0,0.2,0,0.4,0,0.6c0,0.2-0.1,2.7,1.8,2.7c0.2,0,0.7-0.1,1.1-0.5
		c0.8-0.8,0.8-1.9,0.8-3c0-0.7,0-1.4,0-2.1c0-1,0.1-2.6-0.3-3.5c-0.1-0.3-0.6-1-1.6-1c-0.2,0-0.7,0-1.1,0.4
		c-0.7,0.7-0.7,1.8-0.7,2.8V142.4z"/>
	<path class="st1" d="M339.6,164.7c0-0.1,0.1-1-0.1-1.6c-0.2-0.5-0.8-1-1.4-1c-0.2,0-0.5,0-0.9,0.3c-0.7,0.5-0.7,1.3-0.7,2.1v5.7
		c0,0.7,0.1,1.4,0.7,1.8c0.3,0.2,0.6,0.3,0.9,0.3c0.7,0,1.1-0.5,1.2-0.7c0.4-0.6,0.4-1.3,0.4-2l2.6,0c-0.1,1.8-0.2,3.1-1.8,4
		c-0.5,0.3-1.3,0.6-2.5,0.6c-0.5,0-2.2,0-3.3-1.3c-0.8-0.9-0.9-2.1-0.9-3.4l0.1-5.6c0.1-0.5,0.2-1,0.4-1.5c0.4-1,1.4-2.3,3.9-2.3
		c1.6,0,2.6,0.6,3.1,1c0.5,0.5,0.7,1,0.8,1.2c0.3,0.7,0.3,1.6,0.3,2.4L339.6,164.7z"/>
	<path class="st1" d="M345.2,164.1c0-0.9,0-1.2,0.1-1.6c0.7-2.7,3.7-2.7,4.4-2.7c2.2,0,3.4,1.1,3.8,1.9c0.3,0.6,0.4,1.1,0.5,2.5
		c0,1.6,0,3.1,0,4.7c0,1-0.1,1.9,0,2.9c0,0.7,0.1,1.4,0.1,2.1h-2.6l-0.2-1.3c-0.2,0.2-0.4,0.4-0.6,0.6c-1,0.8-2,0.9-2.4,0.9
		c-1.4,0-3.3-0.7-3.3-4c0-0.3,0-0.7,0.1-1c0.1-0.6,0.2-2.2,1.8-2.9c0.9-0.5,2.3-0.7,4.5-0.9c0-0.4,0-0.9,0-1.3c0-0.2,0-0.6-0.1-1
		c-0.3-0.7-0.9-1.1-1.6-1.1c-0.2,0-0.5,0-0.9,0.2c-0.8,0.4-0.8,1.2-0.8,2.1H345.2z M348.7,167.8c-0.5,0.3-1.1,0.7-1.1,2
		c0,1.1,0.4,2.1,1.6,2.1c0.5,0,0.9-0.2,1.2-0.5c1-0.8,0.9-1.9,1-4.3C351.2,167.2,349.7,167.3,348.7,167.8"/>
	<path class="st1" d="M360.5,161.5c0.4-0.5,1.2-1.6,2.9-1.6c1.5,0,2.3,0.9,2.7,1.3c0.7,0.9,0.7,1.8,0.8,2.9v6.1
		c-0.1,0.6-0.1,1.2-0.3,1.7c-0.5,1.3-1.8,2.2-3.2,2.2c-0.8,0-1.6-0.3-2.2-0.8c-0.2-0.2-0.5-0.6-0.5-0.7l-0.1,6.3h-2.7
		c0-2.7,0-5.4,0-8v-6.2c0-0.7,0-1.5,0-2.2c0-0.7-0.1-1.5-0.1-2.2h2.7L360.5,161.5z M360.6,168.7c0,0.8,0,1.9,0.5,2.6
		c0.4,0.7,1.1,0.8,1.4,0.8c0.5,0,0.8-0.3,1-0.4c0.9-0.8,0.7-1.8,0.7-3.9c0-0.6,0-1.2,0-1.7c0-1.6,0-2.6-0.3-3.2
		c-0.1-0.3-0.6-1-1.5-1c-0.4,0-1,0.1-1.5,0.9c-0.3,0.5-0.4,1.1-0.4,2.2V168.7z"/>
	<path class="st1" d="M375.7,164.3c0-0.8,0-1.5-0.6-2.1c-0.4-0.3-0.8-0.3-1-0.3c-0.8,0-1.4,0.6-1.4,1.4c0,1.1,1.2,1.8,1.9,2.3
		c0.5,0.4,1,0.8,1.5,1.1c0.5,0.3,0.8,0.5,1.1,0.9c0.7,0.8,1.2,1.8,1.2,2.9c0,0.5-0.1,1.9-1.2,2.8c-0.5,0.5-1.5,1-3.2,1
		c-0.1,0-0.6,0-1-0.1c-1.2-0.2-1.8-0.6-2.2-1c-0.4-0.4-0.7-0.8-0.9-1.3c-0.2-0.6-0.3-1-0.2-2.3h2.7c0,0.9-0.1,1.7,0.6,2.3
		c0.4,0.4,0.9,0.4,1.1,0.4c1,0,1.7-0.7,1.7-1.7c0-1.1-0.9-1.7-1.7-2.3c-0.4-0.3-0.9-0.6-1.3-1c-0.3-0.2-0.5-0.4-0.8-0.6
		c-0.5-0.3-2-1.4-2-3.4c0-0.3,0.1-1,0.4-1.7c1-1.9,3.6-1.8,3.9-1.8c1.7,0,2.5,0.5,3,1.1c0.5,0.5,0.7,1.1,0.8,1.4
		c0.1,0.6,0.1,1.3,0.1,1.9H375.7z"/>
	<path class="st1" d="M384.3,160.2v9.9c0.1,0.8,0.1,1.4,0.9,1.8c0.1,0.1,0.5,0.2,0.9,0.2c0.1,0,0.6-0.1,0.9-0.3
		c0.7-0.5,0.8-1.2,0.9-2v-9.6h2.8v7.1c0,1.7,0,3.4,0.1,5c0,0.5,0.1,1,0.1,1.5h-2.7l0-1.3c-0.1,0.2-0.4,0.5-0.5,0.6
		c-0.7,0.6-1.6,0.9-2.5,0.9c-1.2,0-2.5-0.7-3-1.8c-0.2-0.4-0.3-0.8-0.4-1.7v-10.5H384.3z"/>
	<rect x="394.8" y="154.2" class="st1" width="2.8" height="19.8"/>
	<path class="st1" d="M403.7,167.9c-0.1,1.5,0,2.7,0.2,3.2c0.1,0.3,0.5,1,1.5,1c0.2,0,0.5,0,0.9-0.2c0.8-0.5,0.9-1.3,0.9-2.2h2.7
		c0,0.2-0.1,1.5-0.4,2.4c-0.4,0.9-1.7,2.2-4.2,2.2c-1.6,0-3.2-0.7-3.8-2.2c-0.2-0.4-0.3-0.7-0.4-1.5c-0.1-1-0.1-2-0.1-3
		c0-1.2,0.1-2.3,0.1-3.5c0.1-0.9,0.2-1.3,0.4-1.7c0.4-1,1.6-2.3,4.1-2.3c0.3,0,2.3,0.1,3.3,1.1c1,1,1,2.5,1,3.8v3H403.7z
		 M403.7,165.9l3.4,0c0-0.5,0-1.1,0-1.7c0-0.1,0-0.7-0.1-1.1c-0.2-0.6-0.9-1.2-1.6-1.2c-0.3,0-0.7,0.1-0.9,0.3
		c-0.9,0.6-0.8,1.6-0.8,1.9V165.9z"/>
	<path class="st1" d="M418.6,164.3c0-0.8,0-1.5-0.6-2.1c-0.4-0.3-0.8-0.3-1-0.3c-0.8,0-1.4,0.6-1.4,1.4c0,1.1,1.2,1.8,1.9,2.3
		c0.5,0.4,1,0.8,1.5,1.1c0.5,0.3,0.8,0.5,1.1,0.9c0.7,0.8,1.2,1.8,1.2,2.9c0,0.5-0.1,1.9-1.2,2.8c-0.5,0.5-1.5,1-3.2,1
		c-0.1,0-0.6,0-1-0.1c-1.2-0.2-1.8-0.6-2.2-1c-0.4-0.4-0.7-0.8-0.9-1.3c-0.2-0.6-0.3-1-0.2-2.3h2.7c0,0.9-0.1,1.7,0.6,2.3
		c0.4,0.4,0.9,0.4,1.1,0.4c1,0,1.7-0.7,1.7-1.7c0-1.1-0.9-1.7-1.7-2.3c-0.4-0.3-0.9-0.6-1.3-1c-0.3-0.2-0.5-0.4-0.8-0.6
		c-0.5-0.3-2-1.4-2-3.4c0-0.3,0.1-1,0.4-1.7c1-1.9,3.6-1.8,3.9-1.8c1.7,0,2.5,0.5,3,1.1c0.5,0.5,0.7,1.1,0.8,1.4
		c0.1,0.6,0.1,1.3,0.1,1.9H418.6z"/>
	<path class="st1" d="M29.2,142.3v3.1c2.2-2.1,3.9-3.6,7-3.6c3.5,0,5.6,2.2,6.3,3.2c1.4,2.1,1.5,4.3,1.5,6.8v15.5
		c-0.4,2.9-0.9,5-3.4,6.6c-0.7,0.5-2.3,1.3-4.4,1.3c-0.7,0-3.2-0.1-5-1.7c-0.5-0.4-0.9-0.9-1.7-2v14.8h-3.8v-43.8H29.2z M31.6,170.7
		c0.5,0.3,1.7,1.3,3.5,1.3c0.5,0,0.6,0,1.1-0.1c0.9-0.2,2.7-1,3.4-3.1c0.6-1.7,0.5-4.6,0.5-9c0-1.9,0.1-3.8,0.1-5.8
		c0-3.1-0.2-5.1-0.7-6.3c-0.4-0.8-1.6-2.7-4.1-2.7c-0.5,0-1.9,0.1-3.2,1c-2.3,1.5-2.7,3.6-2.7,6.2c0,1.3,0.1,2.7,0.1,4
		c0,2.2,0,4.2-0.1,6.4C29.4,165.7,29.4,168.9,31.6,170.7"/>
	<path class="st1" d="M68.3,150.4c-0.1-2-0.1-2.9-0.6-3.6c-0.3-0.7-1.5-1.9-3.5-1.9c-0.4,0-1.7,0.1-2.9,0.7
		c-1.9,0.9-1.9,2.5-2.3,6.2h-3.8c0-0.5-0.4-4.4,1.3-6.8c1.1-1.4,2.5-1.9,3.1-2.2c0.7-0.3,2.4-0.9,4.4-0.9c2.5,0,5,1.1,6.6,2.9
		c1.2,1.5,1.6,2.9,1.6,7v19.7l0.4,3.2h-3.9l-0.1-2.5c-0.3,0.3-0.6,0.5-0.9,0.8c-0.9,0.7-2.6,2.1-5.5,2.1c-2.1,0-4.2-0.7-5.5-2.3
		c-0.9-1.1-1.9-3-1.9-6.4c0-0.9,0.1-1.9,0.2-2.8c0.1-1.3,0.1-4.4,3.2-6.5c2.8-1.8,7-1.9,10.1-2.1V150.4z M66.5,157.9
		c-0.6,0-4.6,0.1-6.8,2.3c-0.3,0.3-0.8,1.1-1.1,2.3c-0.1,0.5-0.4,2.5-0.4,4.4c0,0.5,0,1.4,0.4,2.4c0.7,1.9,2.3,3,4.2,3
		c0.5,0,1.7-0.1,2.8-0.8c2.7-1.7,2.6-5,2.6-5.8c0-1.3-0.1-2.7-0.1-4v-3.9H66.5z"/>
	<rect x="84" y="127.9" class="st1" width="4" height="46.8"/>
	<path class="st1" d="M103.8,127.9v16.7c2.1-1.6,3.9-2.9,6.6-2.9c2.5,0,4.8,1.2,6.3,3.2c1.5,2.1,1.5,4,1.6,6.6
		c0.1,2.7,0.1,5.5,0.1,8.3c-0.1,2.3-0.2,4.7-0.3,7.1c-0.2,1.3-0.4,2.7-0.9,3.8c-1.3,2.7-4.3,4.4-7.3,4.4c-2.6,0-4.1-1.2-6.2-2.9
		l-0.3,2.3H100v-46.8H103.8z M103.6,166.1c0.1,1.1,0.3,2.1,0.7,3.1c0.9,1.9,2.7,3,4.8,3c0.9,0,3.8-0.3,4.8-3.4
		c0.2-0.6,0.2-0.9,0.3-1.7c0-0.3,0.1-0.8,0.1-0.8v-16.8c-0.1-0.4-0.1-0.8-0.1-1.2c-0.1-0.3-0.4-1.6-1.4-2.5
		c-0.6-0.5-1.7-1.2-3.5-1.2c-3.7,0-5,2.5-5.4,4c-0.1,0.4-0.1,0.7-0.1,1.1c0,0.3-0.1,0.7-0.2,0.7V166.1z"/>
	<path class="st1" d="M129.5,155.1c0-1.3-0.1-2.7,0-4c0-0.8,0.1-4.6,2.3-6.9c1.1-1.1,3.3-2.4,7.4-2.4c3.4,0,5.3,1.2,6.4,2.2
		c3.1,2.9,2.5,6.8,2.5,14.8c0,5.7,0.2,8.8-0.7,11.3c-0.7,2.3-2.3,3.3-3.2,3.8c-1.1,0.5-2.9,1.3-5.6,1.3c-4.6,0-6.4-1.7-7.6-3.4
		c-1-1.7-1.5-3.4-1.5-7.2C129.4,161.4,129.5,158.2,129.5,155.1 M144.2,154.6c0-3.1,0-5.3-0.4-6.4c-0.7-2.1-2.7-3.4-4.8-3.4
		c-0.6,0-1.9,0.1-3.2,1.1c-2.3,1.6-2.5,4-2.5,6.6c0,2.9,0,5.8-0.1,8.6c0,4.6,0.1,7.4,1.3,9.2c1.2,1.7,3.3,1.7,4,1.7
		c0.7,0,1.9-0.1,3.2-0.8c2.3-1.4,2.3-3.8,2.3-9.2V154.6z"/>
	<path class="st1" d="M172.7,152c0-2.7,0-4.2-0.5-5.2c-0.7-1.4-2.3-2.1-4-2.1c-0.6,0-1.8,0.1-3,0.8c-1.9,1.3-1.9,3.3-1.9,5.7v15.7
		c0.4,3,0.9,3.9,2.2,4.6c0.4,0.2,1.2,0.7,2.5,0.7c0.5,0,1.7-0.1,2.9-0.9c1.6-1.2,1.7-2.7,1.7-6.4l4,0.1c0,2.6,0,5-1.4,7.2
		c-1.6,2.5-4.6,3.2-7.4,3.2c-3.4,0-5.6-1.3-6.6-2.4c-1.6-1.7-1.7-4.2-1.8-6.7v-16.5c0-0.7,0.1-1.8,0.3-2.5c0.9-3.6,3.8-4.5,5-4.8
		c1.3-0.3,2.7-0.6,4-0.6c1.8,0,3.4,0.5,4.9,1.7c3,2.3,3,5.1,2.9,8.8L172.7,152z"/>
	<path class="st1" d="M190.8,132.7h-4.1v-4.4h4.1V132.7z M190.8,174.6h-3.9v-32.4h3.9V174.6z"/>
	<path class="st1" d="M215.8,152c0-2.7,0-4.2-0.5-5.2c-0.7-1.4-2.3-2.1-4-2.1c-0.6,0-1.8,0.1-3,0.8c-1.9,1.3-1.9,3.3-1.9,5.7v15.7
		c0.4,3,0.9,3.9,2.2,4.6c0.4,0.2,1.2,0.7,2.5,0.7c0.5,0,1.7-0.1,2.9-0.9c1.6-1.2,1.7-2.7,1.7-6.4l4,0.1c0,2.6,0,5-1.4,7.2
		c-1.6,2.5-4.6,3.2-7.4,3.2c-3.4,0-5.6-1.3-6.6-2.4c-1.6-1.7-1.7-4.2-1.8-6.7v-16.5c0-0.7,0.1-1.8,0.3-2.5c0.9-3.6,3.8-4.5,5-4.8
		c1.3-0.3,2.7-0.6,4-0.6c1.8,0,3.4,0.5,4.9,1.7c3,2.3,3,5.1,2.9,8.8L215.8,152z"/>
	<rect x="229.9" y="127.9" class="st1" width="4" height="46.8"/>
	<path class="st1" d="M250,132.7h-4.1v-4.4h4.1V132.7z M249.9,174.6H246v-32.4h3.9V174.6z"/>
	<path class="st1" d="M265.8,127.9v16.7c2.1-1.6,3.9-2.9,6.6-2.9c2.5,0,4.8,1.2,6.3,3.2c1.5,2.1,1.5,4,1.6,6.6
		c0.1,2.7,0.1,5.5,0.1,8.3c-0.1,2.3-0.2,4.7-0.3,7.1c-0.2,1.3-0.4,2.7-0.9,3.8c-1.3,2.7-4.3,4.4-7.3,4.4c-2.6,0-4.1-1.2-6.2-2.9
		l-0.3,2.3H262v-46.8H265.8z M265.6,166.1c0.1,1.1,0.3,2.1,0.7,3.1c0.9,1.9,2.7,3,4.8,3c0.9,0,3.8-0.3,4.8-3.4
		c0.2-0.6,0.2-0.9,0.3-1.7c0-0.3,0.1-0.8,0.1-0.8v-16.8c-0.1-0.4-0.1-0.8-0.1-1.2c-0.1-0.3-0.4-1.6-1.4-2.5
		c-0.6-0.5-1.7-1.2-3.5-1.2c-3.7,0-5,2.5-5.4,4c-0.1,0.4-0.1,0.7-0.1,1.1c0,0.3-0.1,0.7-0.2,0.7V166.1z"/>
	<rect x="306.5" y="122.9" class="st2" width="1" height="57.4"/>
	<polygon class="st0" points="28.8,55.7 28.8,45.6 22.2,45.6 10.8,45.6 4.3,45.6 4.3,55.7 10.8,55.7 10.8,100.2 4.3,100.2 
		4.3,110.3 10.8,110.3 22.2,110.3 28.8,110.3 28.8,100.2 22.2,100.2 22.2,55.7 	"/>
	<g>
		
			<linearGradient id="SVGID_1_" gradientUnits="userSpaceOnUse" x1="394.7469" y1="23.6621" x2="494.7215" y2="23.6621" gradientTransform="matrix(0.9998 -2.210000e-02 2.210000e-02 0.9998 0.2655 30.7347)">
			<stop  offset="0.112" style="stop-color:#FEFEFE;stop-opacity:0"/>
			<stop  offset="0.208" style="stop-color:#FAF9FC;stop-opacity:0.1081"/>
			<stop  offset="0.3181" style="stop-color:#F0EBF6;stop-opacity:0.2322"/>
			<stop  offset="0.4353" style="stop-color:#DFD4ED;stop-opacity:0.3641"/>
			<stop  offset="0.5575" style="stop-color:#C7B4E0;stop-opacity:0.5017"/>
			<stop  offset="0.6834" style="stop-color:#A88AD0;stop-opacity:0.6435"/>
			<stop  offset="0.8126" style="stop-color:#8258BC;stop-opacity:0.789"/>
			<stop  offset="0.942" style="stop-color:#571DA4;stop-opacity:0.9347"/>
			<stop  offset="1" style="stop-color:#410099"/>
		</linearGradient>
		<path class="st3" d="M493.5,73c1.1-2.6,1.9-5.4,2.2-8.4c2.4-23.1-28.5-46.3-82.8-48.9c0,0-19.5,7.1-17.8,7
			C455.5,21.3,498.8,47.5,493.5,73z"/>
		
			<linearGradient id="SVGID_2_" gradientUnits="userSpaceOnUse" x1="446.9644" y1="71.3544" x2="514.2565" y2="71.3544" gradientTransform="matrix(1 4.200000e-03 -4.200000e-03 1 2.430000e-02 -5.2376)">
			<stop  offset="6.875800e-03" style="stop-color:#FEFEFE;stop-opacity:0"/>
			<stop  offset="0.1143" style="stop-color:#FCFDF9;stop-opacity:0.1081"/>
			<stop  offset="0.2374" style="stop-color:#F5F9EB;stop-opacity:0.2322"/>
			<stop  offset="0.3685" style="stop-color:#E9F3D4;stop-opacity:0.3641"/>
			<stop  offset="0.5051" style="stop-color:#D9EBB4;stop-opacity:0.5017"/>
			<stop  offset="0.646" style="stop-color:#C5E08A;stop-opacity:0.6435"/>
			<stop  offset="0.7904" style="stop-color:#ACD258;stop-opacity:0.789"/>
			<stop  offset="0.9351" style="stop-color:#8FC31D;stop-opacity:0.9347"/>
			<stop  offset="1" style="stop-color:#80BC00"/>
		</linearGradient>
		<path class="st4" d="M453.3,101l-6.8,8.6c0,0,9-1.8,17.5-4.4c27.1-8.6,48.8-26.4,50-51.6c0.5-9.5-4-18.8-10.2-26.9
			c4.5,7.1,6.9,14.7,6.9,22.8C510.6,73.1,485.2,90.7,453.3,101z"/>
		<linearGradient id="SVGID_3_" gradientUnits="userSpaceOnUse" x1="470.3521" y1="41.059" x2="511.6794" y2="41.059">
			<stop  offset="1.030370e-02" style="stop-color:#A177CA"/>
			<stop  offset="0.193" style="stop-color:#9B6EC6"/>
			<stop  offset="0.4862" style="stop-color:#8957BC"/>
			<stop  offset="0.8518" style="stop-color:#6B31AC"/>
			<stop  offset="0.8681" style="stop-color:#6A2FAC"/>
		</linearGradient>
		<path class="st5" d="M480.3,7.9c-1.4-0.4-4.8-1.2-7.2-1.8c-1.1-0.3-2-0.5-2.4-0.6c-0.1,0-0.2,0-0.2,0c20.2,11.3,35,28.7,35,46.8
			c0,8.5-4.8,15-10.1,22.2c0,0,0,0,0,0c-0.4,0.7-0.9,1.3-1.4,2c7.9-6.4,14.7-17.2,14.7-26.3C508.5,32.3,499.4,19.1,480.3,7.9z"/>
		<linearGradient id="SVGID_4_" gradientUnits="userSpaceOnUse" x1="412.9083" y1="36.458" x2="501.7249" y2="36.458">
			<stop  offset="1.030370e-02" style="stop-color:#9C6FC7"/>
			<stop  offset="0.4218" style="stop-color:#9567C3"/>
			<stop  offset="1" style="stop-color:#8652BA"/>
		</linearGradient>
		<path class="st6" d="M499.9,64.6c0.1-0.3,0.2-0.5,0.3-0.8c0-0.1,0-0.1,0.1-0.2c0,0,0-0.1,0-0.1c0.1-0.2,0.1-0.4,0.2-0.6
			c0.3-1.2,0.6-2.6,0.8-4.5c0.2-1.5,0.2-3,0.2-4.6c0,0,0,0,0-0.1c0-0.7-0.1-1.4-0.2-2.2c0-0.1,0-0.1,0-0.2c-3-24.3-34-43-68.8-50.3
			c-0.8,0-1.6-0.1-2.4-0.1c-0.2,0-0.5,0-0.7,0c-2,0-2.3,0-3.3,0c-0.4,0-3.9,0.1-3.1,0.1c33,6.3,59.8,21.4,71.1,39.3
			c0.1,0.2,0.3,0.4,0.4,0.6c0.3,0.6,0.7,1.1,1,1.7c0.1,0.2,0.2,0.3,0.2,0.5c3.2,6,4.7,12.4,4,18.8c0,0.2,0,0.4-0.1,0.6
			c-0.3,2.4-0.9,4.6-1.7,6.8c-0.1,0.2-0.2,0.4-0.3,0.7c-0.1,0.2-0.2,0.4-0.3,0.6c-0.1,0.1-0.2,0.4-0.4,0.6c-0.1,0.2-0.1,0.3-0.2,0.5
			C498.1,69.6,499.1,67.1,499.9,64.6z"/>
		<linearGradient id="SVGID_5_" gradientUnits="userSpaceOnUse" x1="432.44" y1="37.8802" x2="505.4147" y2="37.8802">
			<stop  offset="0" style="stop-color:#7841B3"/>
			<stop  offset="0.4461" style="stop-color:#7841B3"/>
			<stop  offset="0.6244" style="stop-color:#763EB2"/>
			<stop  offset="0.7458" style="stop-color:#6E35AE"/>
			<stop  offset="0.8503" style="stop-color:#6126A8"/>
			<stop  offset="0.9446" style="stop-color:#4F119F"/>
			<stop  offset="1" style="stop-color:#410099"/>
		</linearGradient>
		<path class="st7" d="M500.4,62.9c-0.1,0.2-0.1,0.4-0.2,0.6c0,0,0,0.1,0,0.1c0,0.1,0,0.1-0.1,0.2c-0.1,0.3-0.2,0.5-0.3,0.8
			c-0.8,2.5-1.9,5-3.1,7.2c0,0,0,0,0,0c-0.5,0.9-1,1.8-1.6,2.7c5.3-7.2,10.1-13.7,10.1-22.2c0-18.1-14.9-35.5-35-46.8
			c-5.2-1.1-10.8-2-16.6-2.8c-7-0.8-14.3-1.3-21.4-1.6c34.8,7.3,65.8,26,68.8,50.3c0,0.1,0,0.1,0,0.2c0.1,0.7,0.1,1.4,0.2,2.2
			c0,0,0,0,0,0.1c0.1,1.5,0,3-0.2,4.6C501,60.3,500.8,61.7,500.4,62.9z"/>
		<linearGradient id="SVGID_6_" gradientUnits="userSpaceOnUse" x1="327.942" y1="38.8852" x2="499.8695" y2="38.8852">
			<stop  offset="0" style="stop-color:#9161C0"/>
			<stop  offset="4.360881e-03" style="stop-color:#9161C1"/>
			<stop  offset="0.3836" style="stop-color:#9466C2"/>
			<stop  offset="0.5526" style="stop-color:#9263C1"/>
			<stop  offset="0.6676" style="stop-color:#8B5ABE"/>
			<stop  offset="0.7666" style="stop-color:#7E4BB7"/>
			<stop  offset="0.8565" style="stop-color:#6D35AE"/>
			<stop  offset="0.9394" style="stop-color:#5619A3"/>
			<stop  offset="1" style="stop-color:#410099"/>
		</linearGradient>
		<path class="st8" d="M495.7,43.3c-0.1-0.2-0.2-0.3-0.2-0.5c-0.3-0.6-0.6-1.1-1-1.7c-0.1-0.2-0.2-0.4-0.4-0.6
			c-11.3-17.9-38.1-33-71.1-39.3c-0.8,0-1.6,0-2.5,0c-42.7,0.8-78.8,15.6-92.6,36.2C343.7,22.8,373.2,13,406.9,13
			c50.4,0,91.2,21.8,91.2,48.8c0,5.2-1.4,10.1-4.3,14.8c4.9-6.5,5.5-11.6,5.8-14c0-0.2,0.1-0.4,0.1-0.6
			C500.4,55.7,498.9,49.3,495.7,43.3z"/>
		<linearGradient id="SVGID_7_" gradientUnits="userSpaceOnUse" x1="428.8083" y1="59.2538" x2="567.5854" y2="59.2538">
			<stop  offset="0.36" style="stop-color:#C8E096"/>
			<stop  offset="1" style="stop-color:#CDE29F"/>
		</linearGradient>
		<path class="st9" d="M511.1,18.2c-7.8-4.1-16.8-7.1-26.8-9.7c20.2,11.3,32.7,27,32.7,45.1c0,9-3.2,17.6-8.8,25.4
			c-3.2,5-8,9.7-13.9,13.8c-7.6,5.7-18.1,9.8-29.2,13.2c-2,0.5-4,0.9-6,1.3c-0.7,0.1-5.6,1.1-7.5,1.4c0,0-5.2,1.1-6.4,1.4
			c2-0.1,3.9-0.3,5.8-0.5c0.2,0,6.4-0.7,11.2-1.6c7.1-1.5,13.8-3.5,20-5.9c8.8-3.4,16.7-7.7,23.3-12.5c14.6-10.7,23.3-24.5,23-39
			C528.2,38.7,520.9,26.7,511.1,18.2z"/>
		<linearGradient id="SVGID_8_" gradientUnits="userSpaceOnUse" x1="558.3164" y1="9.7409" x2="504.2208" y2="69.5103">
			<stop  offset="0" style="stop-color:#DBEAB9"/>
			<stop  offset="9.638029e-02" style="stop-color:#D8E8B3"/>
			<stop  offset="0.2305" style="stop-color:#CFE3A1"/>
			<stop  offset="0.3868" style="stop-color:#BFDC83"/>
			<stop  offset="0.5599" style="stop-color:#AAD05A"/>
			<stop  offset="0.7448" style="stop-color:#8FC326"/>
			<stop  offset="0.7461" style="stop-color:#8FC225"/>
		</linearGradient>
		<path class="st10" d="M512.9,19.2C512.9,19.2,512.9,19.2,512.9,19.2C512.9,19.2,512.9,19.2,512.9,19.2c0.1,0.1,0.1,0.1,0.1,0.1
			c0,0,0.1,0.1,0.2,0.1c0,0-0.1-0.1-0.1-0.1c0.5,0.3,1.7,1.1,2.2,1.5c0.2,0.1,0.3,0.2,0.5,0.4c0.2,0.1,0.4,0.3,0.6,0.4
			c0.8,0.6,1.6,1.1,2.3,1.7c0,0,0,0,0,0c0.8,0.6,1.5,1.2,2.3,1.9c0.1,0.1,0.3,0.2,0.4,0.3c0.5,0.5,1.1,0.9,1.6,1.4
			c0.3,0.3,0.7,0.6,1,0.9c0.3,0.2,0.5,0.5,0.7,0.7c0.5,0.5,1,1,1.5,1.5c0,0,0,0,0,0c1.2,1.3,2.3,2.7,3.4,4c0.6,0.7,1.1,1.5,1.6,2.2
			c4.3,6.3,6.8,13.1,6.8,19.5c0,0,0,0,0,0c0,0,0,0,0,0c0,0.7,0,1.5-0.1,2.2c0,0.1,0,0.2,0,0.2c0,0.4-0.1,0.7-0.1,1.1
			c-3,24.3-36.7,43.3-79.7,49.1c-1.6,0.2-3.3,0.4-4.9,0.6c49-4.1,89.9-26,89.9-53.2C542.9,42.4,530.7,29.3,512.9,19.2z"/>
		<linearGradient id="SVGID_9_" gradientUnits="userSpaceOnUse" x1="-1086.119" y1="1259.2163" x2="561.9023" y2="17.3432">
			<stop  offset="0.6176" style="stop-color:#B0D36A"/>
			<stop  offset="1" style="stop-color:#C9E098"/>
		</linearGradient>
		<path class="st11" d="M535.9,55.6c0.4-11.1-7.9-24.1-18.4-32.9c-0.1-0.1-0.1-0.1-0.2-0.2c-0.2-0.2-0.4-0.4-0.7-0.5
			c-0.6-0.4-1.1-0.9-1.7-1.3c0,0-0.9-0.7-1.1-0.9c-0.3-0.2-0.6-0.5-0.9-0.6c0.1,0.1,0.2,0.3,0.3,0.4c1.6,1.5,5.3,4.7,5.6,5
			c2.8,2.8,5.2,5.8,7.1,8.9c3.6,5.8,5.6,12,5.8,18.6c0.6,25.3-28.2,46.8-66.6,55.3C505.7,99.7,535,79.1,535.9,55.6z"/>
		<g>
			<linearGradient id="SVGID_10_" gradientUnits="userSpaceOnUse" x1="2789.6465" y1="-2463.7568" x2="-2366.6365" y2="3233.3328">
				<stop  offset="6.855870e-03" style="stop-color:#B3D46E"/>
				<stop  offset="0.3422" style="stop-color:#AFD268"/>
				<stop  offset="0.8078" style="stop-color:#A6CE56"/>
				<stop  offset="0.9945" style="stop-color:#A1CB4D"/>
			</linearGradient>
			<path class="st12" d="M518.8,24.6c-0.3-0.3-3.2-2.9-4.8-4.4c0.2,0.1-1-0.9-1-0.8c-0.1,0-0.1-0.1-0.2-0.1
				c-0.3-0.2-0.5-0.3-0.7-0.4c-0.4-0.2-0.8-0.4-1.2-0.6c9.8,8.5,17.2,20.6,17.5,32.3c0.3,14.5-8.4,28.3-23,39
				c-6.7,4.9-14.5,9.1-23.3,12.5c-6.2,2.4-12.9,4.4-20,5.9c0.3,0,0.5-0.1,0.8-0.1c39.5-8.2,69.5-30,68.8-55.8
				c-0.2-6.6-2.2-12.8-5.8-18.6C524,30.3,521.6,27.4,518.8,24.6z"/>
		</g>
		<linearGradient id="SVGID_11_" gradientUnits="userSpaceOnUse" x1="495.4801" y1="426.2501" x2="495.4801" y2="-297.8966">
			<stop  offset="0" style="stop-color:#80BC00"/>
			<stop  offset="0.2597" style="stop-color:#83BD00"/>
			<stop  offset="0.3303" style="stop-color:#8DC216"/>
			<stop  offset="0.4634" style="stop-color:#9DCA3A"/>
			<stop  offset="0.5976" style="stop-color:#A9D056"/>
			<stop  offset="0.7317" style="stop-color:#B2D46A"/>
			<stop  offset="0.8658" style="stop-color:#B7D776"/>
			<stop  offset="1" style="stop-color:#B9D87A"/>
		</linearGradient>
		<path class="st13" d="M531.2,36.5c-0.5-0.8-1.1-1.6-1.7-2.3c-1-1.4-2.2-2.7-3.4-4c0,0,0,0,0,0c-0.5-0.5-1-1-1.5-1.5
			c-0.2-0.2-0.5-0.5-0.7-0.7c-0.3-0.3-0.6-0.6-1-0.9c-0.5-0.5-1-1-1.6-1.4c-0.1-0.1-0.3-0.2-0.4-0.3c-0.7-0.6-1.5-1.3-2.3-1.9
			c0,0,0,0,0,0c-0.7-0.6-1.5-1.2-2.3-1.7c-0.2-0.1-0.4-0.3-0.6-0.4c-0.8-0.6-1.6-1.1-2.5-1.7c0,0,0,0-0.1,0c0,0,0,0,0,0
			c0,0,0,0-0.1,0c0,0,0,0,0,0c0,0,0,0,0,0c0.1,0,0.1,0.1,0.2,0.2c0,0,0,0,0,0c0.1,0,0.1,0.1,0.2,0.1c0,0,0,0,0.1,0.1
			c0.3,0.2,1.2,0.9,1.6,1.2c-0.2-0.2-0.5-0.3-0.7-0.5c0.2,0.1,0.3,0.3,0.4,0.3c0.6,0.4,1.1,0.9,1.7,1.3c0.2,0.2,0.4,0.4,0.7,0.5
			c0.1,0.1,0.1,0.1,0.2,0.2c10.5,8.7,18.8,21.8,18.4,32.9c-0.8,23.5-30.2,44.1-70.7,51.7c-0.7,0.1-1.5,0.3-2.2,0.4
			c-0.3,0.1-0.6,0.1-0.9,0.2c-0.6,0.1-1.2,0.2-1.8,0.4c0,0,0,0,0,0c0.4-0.1,0.9-0.2,1.3-0.3c0,0,0,0,0,0c-0.5,0.1-1.1,0.2-1.6,0.2
			c-1.4,0.2-2.9,0.4-4.3,0.6c-0.2,0-0.3,0.1-0.5,0.1c0,0,0,0,0,0c-0.1,0-0.1,0-0.2,0c-0.1,0-0.3,0-0.5,0.1c-0.2,0-1.2,0.2-1.5,0.3
			l1-0.1c1.3-0.2,2.7-0.3,4-0.5c43-5.8,76.7-24.8,79.7-49.1c0-0.4,0.1-0.7,0.1-1.1c0-0.1,0-0.2,0-0.2c0.1-0.7,0.1-1.5,0.1-2.2
			C537.9,49.6,535.5,42.8,531.2,36.5z"/>
	</g>
</g>
</svg>
