<?xml version="1.0" encoding="utf-8"?>
<!-- Generator: Adobe Illustrator 21.1.0, SVG Export Plug-In . SVG Version: 6.00 Build 0)  -->
<svg version="1.1" id="Layer_1" xmlns="http://www.w3.org/2000/svg" xmlns:xlink="http://www.w3.org/1999/xlink" x="0px" y="0px"
	 viewBox="0 0 38 22" style="enable-background:new 0 0 38 22;" xml:space="preserve">
<style type="text/css">
	.st0{clip-path:url(#SVGID_2_);fill:url(#SVGID_3_);}
</style>
<g>
	<defs>
		<path id="SVGID_1_" d="M26.9,9.9c-0.5,0.4-0.9,1-1,1.6c0.9,0,1.4-0.2,1.9-0.5c0.4-0.3,0.6-0.7,0.6-1c0-0.2-0.1-0.4-0.6-0.4
			C27.6,9.5,27.2,9.7,26.9,9.9 M7.8,6.6c-0.3,1-0.7,2.5-1.1,4c1.6,0,2.6-0.3,3-1.8c0.4-1.3,0.2-2.1-1.6-2.1H7.8z M21.9,9.7l-2.7,0
			l0.3-1h4.9c-0.6,1.9-3.2,3.4-4,4.8h3.1l-0.3,1.2h-5C18.1,12.9,21.3,10.7,21.9,9.7 M34.9,8.6c1.1,0,1.3,0.7,1.3,1.2
			c0,0.6-0.4,1-0.9,1c-0.4,0-0.5-0.1-0.6-0.2c-0.2-0.2-0.2-0.3-0.2-0.5c0-0.2-0.1-0.3-0.3-0.4c-0.3,0-0.5,0.1-0.7,0.3
			c-0.3,0.3-0.6,0.7-0.8,1.2c-0.1,0.3-0.2,0.6-0.3,0.8l-0.8,2.8h-2l1.6-6h1.9l-0.3,1.2C33.2,9.4,34.1,8.6,34.9,8.6 M23.9,12.6
			c0-2.2,2-4,4.1-4c1,0,1.9,0.5,1.9,1.3c0,0.9-0.7,1.7-1.7,2.1c-0.6,0.2-1.3,0.3-2.4,0.3c0,0.2,0,0.3,0,0.4c0,0.6,0.5,1.1,1.2,1.1
			c0.9,0,1.8-0.8,1.9-0.9l0.3,0.9c-0.3,0.3-0.6,0.5-0.9,0.7c-0.6,0.3-1.2,0.4-1.9,0.4C24.9,15,23.9,14,23.9,12.6 M6.1,5.7h2.3
			c3.5,0,3.8,1.8,3.5,3.1c-0.4,1.6-1.3,2.7-5.4,2.7c-0.4,1.5-0.7,2.8-0.9,3.2h-2C4,13.4,6.1,5.7,6.1,5.7 M23.4,0.2
			c-2.1,0-4.4,0.2-6.7,0.7C7.4,2.9,0.5,8.4,0.5,13.6c0,0.4,0,0.8,0.1,1.2c0.7,3.2,4.1,5.5,8.8,6.5c1-3.8,3.3-12.6,3.3-12.6
			c0.4-1.7,0.7-2.4,1.1-3.2c0.6-1,1.5-1.8,2.8-1.9c0.7-0.1,1.8,0,2.3,0.4c0.6,0.4,0.6,0.8,0.6,1.2c0,0.8-0.5,1.3-1.3,1.3
			c-0.8,0-1-0.6-1-0.9c0-0.5,0.3-0.6,0.3-1c0-0.2-0.2-0.5-0.7-0.4c-0.6,0.1-1.1,0.6-1.4,1.4c-0.1,0.2-0.2,0.4-0.3,0.9l-0.6,2.3h3.9
			c-0.5,1.8-1.4,5.1-1.6,6h-2l1.4-5h-1.9l-3.1,11.9c1,0.1,2,0.2,3,0.2h0.1c2.1,0,4.3-0.2,6.5-0.7c9.4-2,16.5-7.5,16.6-12.7
			c0-0.4,0-0.8-0.1-1.2C36.5,2.9,30.7,0.2,23.4,0.2L23.4,0.2z"/>
	</defs>
	<clipPath id="SVGID_2_">
		<use xlink:href="#SVGID_1_"  style="overflow:visible;"/>
	</clipPath>
	
		<radialGradient id="SVGID_3_" cx="-283.0924" cy="599.677" r="0.4289" gradientTransform="matrix(82.7853 0 0 -82.7853 23439.9531 49643.3203)" gradientUnits="userSpaceOnUse">
		<stop  offset="0" style="stop-color:#00B9F2"/>
		<stop  offset="0.2527" style="stop-color:#00B9F2"/>
		<stop  offset="0.5275" style="stop-color:#00A5E8"/>
		<stop  offset="1" style="stop-color:#006CB7"/>
	</radialGradient>
	<rect x="0.5" y="0.2" class="st0" width="37" height="21.5"/>
</g>
</svg>
